HIERARCHY
ROOT Hips
{
	OFFSET 0.000000 0.000000 0.000000
	CHANNELS 6 Xposition Yposition Zposition Yrotation Xrotation Zrotation
	JOINT Chest
	{
		OFFSET 0.000000 -0.009281 11.569106
		CHANNELS 3 Yrotation Xrotation Zrotation
		JOINT Chest2
		{
			OFFSET -0.000000 0.016865 9.269641
			CHANNELS 3 Yrotation Xrotation Zrotation
			JOINT Chest3
			{
				OFFSET -0.000000 0.000001 8.374491
				CHANNELS 3 Yrotation Xrotation Zrotation
				JOINT Chest4
				{
					OFFSET -0.000000 0.000001 8.374493
					CHANNELS 3 Yrotation Xrotation Zrotation
					JOINT Neck
					{
						OFFSET -0.000000 0.000002 12.152554
						CHANNELS 3 Yrotation Xrotation Zrotation
						JOINT Head
						{
							OFFSET -0.000000 0.040101 7.802319
							CHANNELS 3 Yrotation Xrotation Zrotation
							End Site
							{
								OFFSET -0.000000 0.020947 14.853096
							}
						}
					}
					JOINT RightCollar
					{
						OFFSET 2.894404 0.000001 6.791374
						CHANNELS 3 Yrotation Xrotation Zrotation
						JOINT RightShoulder
						{
							OFFSET 13.574684 0.000001 0.000000
							CHANNELS 3 Yrotation Xrotation Zrotation
							JOINT RightElbow
							{
								OFFSET 23.923903 0.000002 0.000000
								CHANNELS 3 Yrotation Xrotation Zrotation
								JOINT RightWrist
								{
									OFFSET 19.846718 0.012767 0.000000
									CHANNELS 3 Yrotation Xrotation Zrotation
									End Site
									{
										OFFSET 14.973145 0.000001 0.000000
									}
								}
							}
						}
					}
					JOINT LeftCollar
					{
						OFFSET -2.894404 0.000001 6.791374
						CHANNELS 3 Yrotation Xrotation Zrotation
						JOINT LeftShoulder
						{
							OFFSET -13.574684 -0.000001 0.000000
							CHANNELS 3 Yrotation Xrotation Zrotation
							JOINT LeftElbow
							{
								OFFSET -23.923903 -0.000002 0.000000
								CHANNELS 3 Yrotation Xrotation Zrotation
								JOINT LeftWrist
								{
									OFFSET -19.846718 0.012763 0.000000
									CHANNELS 3 Yrotation Xrotation Zrotation
									End Site
									{
										OFFSET -14.973145 -0.000001 0.000000
									}
								}
							}
						}
					}
				}
			}
		}
	}
	JOINT RightHip
	{
		OFFSET 9.469263 0.004643 0.045487
		CHANNELS 3 Yrotation Xrotation Zrotation
		JOINT RightKnee
		{
			OFFSET 0.000000 0.002661 -40.478676
			CHANNELS 3 Yrotation Xrotation Zrotation
			JOINT RightAnkle
			{
				OFFSET 0.000000 0.049106 -35.224068
				CHANNELS 3 Yrotation Xrotation Zrotation
				JOINT RightToe
				{
					OFFSET -0.000001 12.539529 -6.151390
					CHANNELS 3 Yrotation Xrotation Zrotation
					End Site
					{
						OFFSET -0.000001 5.044994 -1.291870
					}
				}
			}
		}
	}
	JOINT LeftHip
	{
		OFFSET -9.469263 0.004641 0.045487
		CHANNELS 3 Yrotation Xrotation Zrotation
		JOINT LeftKnee
		{
			OFFSET 0.000000 0.002661 -40.478676
			CHANNELS 3 Yrotation Xrotation Zrotation
			JOINT LeftAnkle
			{
				OFFSET 0.000000 0.049106 -35.224068
				CHANNELS 3 Yrotation Xrotation Zrotation
				JOINT LeftToe
				{
					OFFSET -0.000001 12.539529 -6.151390
					CHANNELS 3 Yrotation Xrotation Zrotation
					End Site
					{
						OFFSET -0.000001 5.044994 -1.291870
					}
				}
			}
		}
	}
}
MOTION
Frames: 15
Frame Time: 0.016667
8.323660 6.580442 83.213745 -5.718239 -2.764979 -111.595374 1.337021 -0.999851 0.646264 0.601322 -0.438449 0.280980 0.601321 -0.438447 0.280982 0.451191 -0.328560 0.211166 -1.297842 -21.433127 -1.822361 -2.874668 -3.681619 -3.674767 7.389042 0.318776 0.742304 88.235690 -2.623228 12.051433 57.302856 20.404613 38.241580 -36.821242 60.554934 13.689445 -7.922335 -4.083111 -9.982042 -51.468617 -8.622579 -50.631468 -7.362480 -41.846564 -24.945150 35.295918 -15.433743 -58.955632 -0.261907 -7.238411 0.514854 -0.041867 -1.765709 -7.168221 2.106955 2.198142 4.850242 0.018253 -0.038352 0.044339 -0.586587 -8.191752 -0.278339 0.772802 -0.119714 1.324209 -0.510114 1.719755 -2.411754 0.019715 0.110727 -0.050321 
8.305545 6.580726 83.219856 -5.727782 -2.734252 -111.593072 1.331662 -1.002356 0.655957 0.599581 -0.440109 0.284431 0.599581 -0.440109 0.284428 0.449889 -0.329803 0.213752 -1.325388 -21.345441 -1.787013 -2.917388 -3.518598 -3.621306 7.372834 0.308617 0.746856 88.240143 -2.690324 12.095171 57.315457 20.437434 38.330318 -36.916411 60.516193 13.595476 -7.929984 -4.092238 -10.005567 -51.411650 -8.745773 -50.636676 -7.198237 -41.870439 -25.016280 35.265667 -15.393250 -59.122309 -0.288279 -7.231131 0.529963 -0.041851 -1.751307 -7.199773 2.102236 2.182986 4.883935 0.018037 -0.038106 0.048922 -0.606066 -8.164386 -0.353280 0.768466 -0.135944 1.326258 -0.508211 1.640834 -2.415688 0.007018 0.134084 -0.052741 
8.288523 6.578932 83.225655 -5.732137 -2.705776 -111.587539 1.326955 -0.997340 0.659707 0.598557 -0.438513 0.284930 0.598557 -0.438513 0.284930 0.449121 -0.328606 0.214129 -1.351248 -21.279979 -1.741186 -2.953252 -3.396341 -3.547701 7.364014 0.307808 0.749169 88.224775 -2.785134 12.135114 57.278810 20.447273 38.380257 -37.025438 60.477145 13.540193 -7.932965 -4.104153 -10.027636 -51.358023 -8.835767 -50.635375 -7.101332 -41.892668 -25.056248 35.206077 -15.362234 -59.259609 -0.307560 -7.217283 0.549099 -0.034952 -1.742572 -7.221254 2.089060 2.174199 4.850519 0.017413 -0.037624 0.050706 -0.627111 -8.139405 -0.412452 0.775330 -0.140756 1.326450 -0.507305 1.561380 -2.419742 -0.007064 0.149414 -0.053788 
8.273883 6.573207 83.230759 -5.739106 -2.676954 -111.577349 1.319388 -0.989214 0.662630 0.595656 -0.434966 0.285155 0.595657 -0.434966 0.285154 0.446944 -0.325947 0.214290 -1.369762 -21.230946 -1.693753 -2.974748 -3.304204 -3.468573 7.360106 0.324362 0.736929 88.198076 -2.899263 12.159629 57.210870 20.434739 38.398357 -37.129318 60.438978 13.497683 -7.923815 -4.118844 -10.052234 -51.312882 -8.898230 -50.652287 -7.039821 -41.933219 -25.100996 35.074162 -15.340055 -59.311553 -0.330596 -7.213294 0.556719 -0.023805 -1.727921 -7.251036 2.075205 2.171041 4.832931 0.017465 -0.039835 0.053659 -0.646912 -8.120635 -0.452108 0.784500 -0.143384 1.321501 -0.504546 1.485568 -2.451844 -0.023750 0.160412 -0.055750 
8.263660 6.564119 83.235611 -5.746786 -2.650129 -111.564330 1.308581 -0.977416 0.666583 0.592431 -0.429385 0.285537 0.592431 -0.429384 0.285535 0.444522 -0.321763 0.214567 -1.379732 -21.193780 -1.645725 -2.980145 -3.233738 -3.385503 7.356869 0.333114 0.727749 88.179054 -2.974353 12.183474 57.191626 20.426640 38.405976 -37.311319 60.393899 13.314488 -7.913782 -4.130026 -10.074979 -51.270002 -8.941518 -50.670899 -6.994328 -41.963880 -25.136556 34.968851 -15.382474 -59.427133 -0.352927 -7.217862 0.540261 -0.014320 -1.710261 -7.273906 2.062969 2.170705 4.897106 0.019063 -0.040729 0.057681 -0.659776 -8.100702 -0.479295 0.779053 -0.158672 1.316450 -0.488874 1.419153 -2.488151 -0.040477 0.169631 -0.059260 
8.258537 6.551486 83.240189 -5.755210 -2.623575 -111.546702 1.294423 -0.965738 0.671896 0.587805 -0.423713 0.287192 0.587806 -0.423714 0.287198 0.441051 -0.317510 0.215802 -1.378571 -21.162535 -1.602273 -2.966452 -3.174018 -3.307312 7.357348 0.352720 0.712787 88.169273 -3.017944 12.196875 57.188170 20.420421 38.389003 -37.505166 60.284534 13.042993 -7.899754 -4.136677 -10.098905 -51.216925 -9.000736 -50.697550 -6.906962 -41.982659 -25.185935 34.909531 -15.470122 -59.508481 -0.365620 -7.231397 0.509655 -0.013449 -1.683854 -7.284203 2.048706 2.172376 4.939081 0.021840 -0.042695 0.062081 -0.676434 -8.081941 -0.527391 0.780321 -0.180373 1.334090 -0.470588 1.359256 -2.493270 -0.058618 0.176454 -0.063079 
8.256568 6.539431 83.244629 -5.769038 -2.601580 -111.528540 1.283331 -0.941078 0.676145 0.583842 -0.413265 0.288735 0.583842 -0.413265 0.288737 0.438075 -0.309674 0.216947 -1.374236 -21.149409 -1.560854 -2.946986 -3.147879 -3.231327 7.351730 0.343975 0.703116 88.148509 -3.057705 12.204072 57.155119 20.387287 38.335243 -37.630599 60.175660 12.864613 -7.896606 -4.164434 -10.116324 -51.166982 -9.059316 -50.705900 -6.814400 -41.955414 -25.206786 34.793773 -15.570154 -59.543315 -0.377287 -7.251823 0.482627 -0.010472 -1.660056 -7.295447 2.030460 2.176916 4.941847 0.027243 -0.043181 0.065539 -0.692088 -8.071607 -0.593953 0.790834 -0.205396 1.367816 -0.451885 1.306247 -2.542178 -0.080115 0.180161 -0.066911 
8.253954 6.522291 83.249214 -5.791435 -2.586307 -111.514163 1.274345 -0.923139 0.686250 0.578594 -0.406446 0.293645 0.578594 -0.406445 0.293642 0.434139 -0.304559 0.220616 -1.360923 -21.140605 -1.527772 -2.913514 -3.129779 -3.167729 7.344034 0.335266 0.685286 88.119686 -3.105794 12.220789 57.103298 20.331566 38.254892 -37.695725 60.093862 12.774413 -7.898085 -4.175020 -10.134683 -51.142209 -9.116206 -50.731319 -6.757700 -41.909313 -25.172730 34.561645 -15.618553 -59.463135 -0.382857 -7.282227 0.469161 -0.005709 -1.637754 -7.312224 2.003637 2.181829 4.933146 0.034599 -0.041454 0.068095 -0.706108 -8.071306 -0.665334 0.802811 -0.233630 1.407908 -0.430521 1.260147 -2.587891 -0.100086 0.180974 -0.066985 
8.250034 6.502482 83.253227 -5.820463 -2.575082 -111.505201 1.265397 -0.909047 0.703363 0.572897 -0.401529 0.301878 0.572898 -0.401529 0.301874 0.429870 -0.300865 0.226786 -1.337303 -21.140407 -1.505355 -2.864173 -3.127683 -3.120209 7.340310 0.329234 0.666878 88.092269 -3.149526 12.233863 56.998144 20.233163 38.139008 -37.716793 59.991956 12.726355 -7.896934 -4.183246 -10.149320 -51.146034 -9.158645 -50.776101 -6.754220 -41.837624 -25.093908 34.325870 -15.630244 -59.383468 -0.385686 -7.317696 0.463131 0.000417 -1.618712 -7.320258 1.971975 2.188874 4.905088 0.041570 -0.039828 0.069268 -0.716674 -8.079552 -0.727278 0.814245 -0.263033 1.439867 -0.410730 1.223935 -2.613591 -0.117011 0.177122 -0.066851 
8.245462 6.477595 83.255669 -5.853071 -2.567832 -111.500256 1.259869 -0.896876 0.720799 0.568721 -0.396583 0.309806 0.568721 -0.396584 0.309807 0.426740 -0.297149 0.232720 -1.308696 -21.153697 -1.487262 -2.806637 -3.150629 -3.078708 7.338416 0.318519 0.660766 88.058924 -3.196034 12.244102 56.857336 20.118863 38.010413 -37.758734 59.858760 12.717115 -7.901141 -4.192294 -10.154412 -51.180387 -9.170462 -50.799470 -6.741435 -41.770199 -25.037435 34.106696 -15.648776 -59.310801 -0.386226 -7.360681 0.469970 0.005549 -1.598395 -7.356128 1.941239 2.197950 4.941178 0.047921 -0.039588 0.070509 -0.721663 -8.099405 -0.772166 0.824339 -0.282977 1.463263 -0.394517 1.195091 -2.649102 -0.129851 0.167155 -0.066688 
8.242520 6.448945 83.256813 -5.891141 -2.563190 -111.495270 1.253031 -0.886789 0.737118 0.564570 -0.391947 0.317460 0.564570 -0.391947 0.317460 0.423629 -0.293668 0.238455 -1.277342 -21.177013 -1.471779 -2.744597 -3.192214 -3.040866 7.343281 0.326484 0.649962 88.022711 -3.260821 12.237726 56.722467 20.054108 37.876104 -37.814407 59.749955 12.669974 -7.897312 -4.209230 -10.156447 -51.209340 -9.184107 -50.830302 -6.690735 -41.703154 -24.999445 33.983620 -15.746499 -59.255211 -0.383408 -7.412785 0.466401 0.011481 -1.575190 -7.377667 1.905067 2.211314 4.987799 0.054297 -0.042211 0.070838 -0.729053 -8.130384 -0.804589 0.842323 -0.297560 1.495535 -0.385462 1.174618 -2.696048 -0.139137 0.152825 -0.066916 
8.243521 6.420179 83.257248 -5.935990 -2.559149 -111.486282 1.245428 -0.881254 0.752695 0.560498 -0.389193 0.324701 0.560498 -0.389192 0.324704 0.420578 -0.291597 0.243883 -1.242992 -21.201751 -1.459863 -2.678133 -3.236474 -3.008618 7.342822 0.331560 0.648682 87.997487 -3.328051 12.235085 56.642001 20.049921 37.792950 -37.980845 59.651566 12.422268 -7.902562 -4.203679 -10.160626 -51.215391 -9.217306 -50.844936 -6.620052 -41.648684 -24.960450 33.881150 -15.825796 -59.162860 -0.378795 -7.473713 0.444214 0.015263 -1.551999 -7.384824 1.867297 2.229831 4.981052 0.059831 -0.046275 0.069064 -0.741721 -8.169219 -0.848308 0.861880 -0.313617 1.554252 -0.376164 1.161464 -2.728506 -0.145750 0.138294 -0.067187 
8.244949 6.388333 83.257050 -5.985058 -2.559902 -111.475688 1.237978 -0.877267 0.769924 0.556670 -0.387297 0.332868 0.556670 -0.387297 0.332871 0.417712 -0.290170 0.250005 -1.205798 -21.223051 -1.453333 -2.608189 -3.274469 -2.985426 7.340096 0.328127 0.637017 87.985643 -3.386708 12.240346 56.578114 20.052115 37.701370 -38.123254 59.528725 12.174447 -7.902955 -4.200121 -10.172757 -51.214719 -9.257836 -50.860758 -6.582652 -41.580628 -24.875149 33.823107 -15.911192 -59.090152 -0.372326 -7.540578 0.415949 0.022412 -1.532398 -7.383693 1.825069 2.250795 4.965368 0.066008 -0.048079 0.067013 -0.751242 -8.213635 -0.893953 0.875508 -0.336395 1.611387 -0.360843 1.161244 -2.773019 -0.151239 0.122073 -0.065368 
8.247831 6.359401 83.257706 -6.037579 -2.557124 -111.463066 1.226844 -0.872194 0.786075 0.552642 -0.384957 0.339996 0.552642 -0.384958 0.339995 0.414695 -0.288410 0.255345 -1.168125 -21.241477 -1.449572 -2.538277 -3.307228 -2.967225 7.335250 0.336259 0.618135 87.974974 -3.440299 12.227516 56.510434 20.021506 37.619514 -38.247867 59.347343 11.924999 -7.902061 -4.201724 -10.179876 -51.225920 -9.273807 -50.874992 -6.571714 -41.527219 -24.790175 33.751376 -15.959673 -59.036583 -0.381699 -7.607399 0.391698 0.040837 -1.521008 -7.400417 1.785356 2.276943 5.022163 0.070187 -0.049620 0.066793 -0.758145 -8.254744 -0.940522 0.888007 -0.365046 1.650325 -0.351204 1.162335 -2.790443 -0.155686 0.108351 -0.066837 
8.250147 6.331669 83.258888 -6.087780 -2.554302 -111.446052 1.214775 -0.867035 0.800537 0.548868 -0.382378 0.346915 0.548868 -0.382377 0.346910 0.411866 -0.286472 0.260527 -1.129079 -21.255979 -1.449007 -2.466914 -3.332790 -2.954537 7.332190 0.329279 0.605919 87.978096 -3.462089 12.221233 56.422154 19.952275 37.531787 -38.242209 59.169143 11.780216 -7.900066 -4.210035 -10.184543 -51.251202 -9.266734 -50.883188 -6.575935 -41.488823 -24.723319 33.670476 -16.018271 -58.986914 -0.386277 -7.666847 0.367614 0.060553 -1.516345 -7.414477 1.743962 2.304537 5.041489 0.071124 -0.050194 0.065514 -0.769494 -8.291183 -0.991873 0.898767 -0.398926 1.671466 -0.333769 1.165078 -2.785263 -0.159187 0.097854 -0.066602 
